<?xml version="1.0" encoding="utf-8"?>
<!-- Generator: Adobe Illustrator 16.0.3, SVG Export Plug-In . SVG Version: 6.00 Build 0)  -->
<!DOCTYPE svg PUBLIC "-//W3C//DTD SVG 1.1//EN" "http://www.w3.org/Graphics/SVG/1.1/DTD/svg11.dtd">
<svg version="1.1" id="iconConstruction" xmlns="http://www.w3.org/2000/svg" xmlns:xlink="http://www.w3.org/1999/xlink" x="0px"
	 y="0px" width="141.73px" height="141.73px" viewBox="0 0 141.73 141.73" enable-background="new 0 0 141.73 141.73"
	 xml:space="preserve">
<circle id="Magenta" fill="#B14C79" cx="70.866" cy="70.866" r="70.866"/>
<path id="Hat" fill="#FFFFFF" d="M125.938,76.046c-0.813-0.93-2.057-1.376-3.031-1.591l-0.002-7.195
	c0.055-1.124-0.395-3.343-2.424-4.536c-0.626-0.368-1.465-0.686-2.113-0.903c-0.44-3.091-2.123-12.661-6.796-19.51
	c-7.149-10.481-17.153-14.941-19.786-15.975c-0.482-1.018-1.588-2.931-3.484-4.037c-1.666-0.972-4.631-1.689-5.835-1.953
	c-0.54-0.548-1.605-1.457-3.126-1.963c-1.986-0.659-8.413-0.75-8.475-0.75s-6.485,0.091-8.475,0.75
	c-1.522,0.505-2.586,1.414-3.125,1.963c-1.205,0.264-4.17,0.981-5.835,1.953c-1.896,1.106-3.002,3.02-3.484,4.037
	c-2.633,1.034-12.635,5.493-19.785,15.975c-4.672,6.849-6.355,16.418-6.795,19.51c-0.648,0.216-1.488,0.534-2.113,0.901
	c-2.034,1.194-2.481,3.415-2.427,4.464v7.268c-0.975,0.215-2.218,0.661-3.029,1.59c-0.639,0.731-0.925,1.645-0.829,2.642
	c0.029,0.297,3.994,30.289,10.094,33.654c4.118,2.273,15.545,6.088,45.805,6.088c30.262,0,41.688-3.814,45.804-6.088
	c6.096-3.362,10.066-33.357,10.096-33.654C126.862,77.69,126.576,76.777,125.938,76.046z M22.771,65.31
	c0.647-0.38,1.917-0.771,2.352-0.89l0.986-0.27l0.11-1.016c0.013-0.115,1.314-11.649,6.419-19.132
	c5.273-7.73,12.365-11.995,16.193-13.875c-0.304,1.61-0.634,3.938-0.918,7.305l2.989,0.253c0.47-5.556,1.044-8.028,1.33-8.98
	l0.009-0.003l0.242-0.681c0.007-0.021,0.806-2.165,2.458-3.129c0.484-0.283,1.192-0.556,1.946-0.801
	c-1.412,3.294-3.192,9.483-4.668,21.076l2.976,0.379c2.181-17.127,4.901-21.562,5.61-22.459l0.077-0.017l0.341-0.42
	c0.008-0.01,0.808-0.984,2.111-1.417c1.085-0.359,5.879-0.598,7.53-0.598c1.652,0,6.446,0.238,7.529,0.597
	c1.304,0.434,2.107,1.41,2.108,1.411l0.342,0.435l0.084,0.017c0.725,0.931,3.429,5.417,5.6,22.451l2.977-0.38
	c-1.479-11.595-3.259-17.784-4.668-21.078c0.755,0.246,1.466,0.521,1.952,0.804c1.654,0.966,2.452,3.113,2.458,3.129l0.243,0.682
	l0.007,0.002c0.285,0.958,0.858,3.435,1.329,8.981l2.989-0.254c-0.286-3.368-0.617-5.696-0.92-7.306
	c3.828,1.879,10.923,6.144,16.197,13.876c5.096,7.468,6.407,19.017,6.42,19.133l0.111,1.017l0.986,0.268
	c0.403,0.11,1.701,0.509,2.349,0.891c0.965,0.566,0.949,1.771,0.947,1.876v8.463c-1.501,12.226-7.749,18.124-7.809,18.18
	l-0.489,0.446v2.01l-6.491,2.958l-2.716-1.879l-0.664,0.171c-0.1,0.025-10.169,2.558-30.872,2.558
	c-20.706,0-30.774-2.532-30.873-2.558l-0.666-0.172l-2.713,1.879l-6.492-2.957v-2.01l-0.489-0.446
	c-0.063-0.058-6.301-5.874-7.809-18.182l-0.001-8.537C21.823,67.1,21.79,65.886,22.771,65.31z M115.22,109.714
	c-3.11,1.719-13.66,5.715-44.354,5.715c-30.692,0-41.243-3.996-44.355-5.715c-3.471-1.914-7.875-24.312-8.557-31.318
	c-0.021-0.215,0.035-0.3,0.1-0.375c0.196-0.226,0.583-0.402,1.007-0.53c1.653,10.55,6.49,16.409,8.062,18.068v2.657l9.798,4.465
	l3.002-2.079c2.608,0.579,12.607,2.492,30.943,2.492c18.334,0,28.334-1.913,30.941-2.492l3.004,2.078l9.798-4.464v-2.657
	c1.572-1.659,6.408-7.519,8.062-18.067c0.418,0.125,0.808,0.299,1.008,0.528c0.065,0.074,0.122,0.159,0.101,0.376
	C123.074,85.622,118.752,107.766,115.22,109.714z"/>
<g>
</g>
<g>
</g>
<g>
</g>
<g>
</g>
<g>
</g>
<g>
</g>
</svg>
