<?xml version="1.0" encoding="utf-8"?>
<!-- Generator: Adobe Illustrator 16.0.3, SVG Export Plug-In . SVG Version: 6.00 Build 0)  -->
<!DOCTYPE svg PUBLIC "-//W3C//DTD SVG 1.1//EN" "http://www.w3.org/Graphics/SVG/1.1/DTD/svg11.dtd">
<svg version="1.1" id="iconReactor" xmlns="http://www.w3.org/2000/svg" xmlns:xlink="http://www.w3.org/1999/xlink" x="0px"
	 y="0px" width="141.73px" height="141.73px" viewBox="0 0 141.73 141.73" enable-background="new 0 0 141.73 141.73"
	 xml:space="preserve">
<circle id="Blue" fill="#007DAD" cx="70.866" cy="70.866" r="70.866"/>
<path id="Circle_1_" fill="#FFFFFF" d="M70.866,121.973c-28.18,0-51.106-22.927-51.106-51.108c0-28.179,22.926-51.105,51.106-51.105
	c28.181,0,51.106,22.926,51.106,51.105C121.973,99.046,99.047,121.973,70.866,121.973z M70.866,22.76
	c-26.526,0-48.106,21.58-48.106,48.105c0,26.527,21.581,48.108,48.106,48.108c26.526,0,48.106-21.581,48.106-48.108
	C118.973,44.339,97.393,22.76,70.866,22.76z"/>
<path id="Dots" fill="#FFFFFF" d="M64.44,132.649L64.44,132.649L64.44,132.649c-2.19-0.229-3.79-2.189-3.57-4.39l0,0
	c0.23-2.2,2.19-3.8,4.39-3.57l0,0c2.2,0.23,3.8,2.19,3.57,4.391l0,0c-0.21,2.06-1.95,3.59-3.97,3.59l0,0
	C64.72,132.67,64.58,132.66,64.44,132.649z M73.01,129.069c-0.229-2.189,1.37-4.159,3.57-4.39l0,0c2.189-0.229,4.16,1.36,4.39,3.561
	l0,0c0.23,2.199-1.36,4.159-3.56,4.39l0,0c0,0,0,0,0,0.01l0,0c-0.141,0.01-0.28,0.021-0.42,0.021l0,0
	C74.97,132.66,73.229,131.13,73.01,129.069z M51.74,129.97c0,0,0,0,0,0.01l0,0c-2.11-0.689-3.26-2.939-2.58-5.04l0,0
	c0.68-2.109,2.94-3.26,5.04-2.58l0,0c2.1,0.681,3.25,2.94,2.57,5.04l0,0c-0.54,1.69-2.11,2.771-3.8,2.771l0,0
	C52.56,130.17,52.15,130.1,51.74,129.97z M85.06,127.37c-0.68-2.101,0.471-4.36,2.57-5.04l0,0c2.1-0.681,4.36,0.46,5.04,2.56l0,0
	c0.689,2.101-0.46,4.36-2.561,5.05l0,0l0,0l0,0c-0.42,0.13-0.829,0.19-1.239,0.19l0,0C87.18,130.13,85.609,129.06,85.06,127.37z
	 M39.87,124.7c-1.91-1.101-2.57-3.551-1.46-5.46l0,0c1.1-1.921,3.55-2.57,5.46-1.471l0,0c1.91,1.11,2.57,3.55,1.47,5.471l0,0
	c-0.75,1.279-2.09,2-3.47,2l0,0C41.19,125.24,40.5,125.06,39.87,124.7z M96.5,123.189c-1.11-1.92-0.46-4.359,1.45-5.47l0,0
	c1.909-1.11,4.359-0.46,5.47,1.46l0,0c1.1,1.91,0.45,4.351-1.46,5.46l0,0l0,0l0,0c-0.63,0.37-1.32,0.54-2,0.54l0,0
	C98.58,125.18,97.24,124.47,96.5,123.189z M29.37,117.08L29.37,117.08L29.37,117.08c-1.64-1.48-1.78-4.011-0.3-5.65l0,0
	c1.47-1.64,4-1.78,5.65-0.3l0,0c1.64,1.47,1.77,4,0.3,5.65l0,0c-0.79,0.88-1.88,1.319-2.98,1.319l0,0
	C31.09,118.1,30.13,117.77,29.37,117.08z M106.8,116.71c-1.48-1.641-1.35-4.17,0.29-5.65l0,0c1.64-1.479,4.17-1.35,5.65,0.29l0,0
	c1.479,1.641,1.35,4.17-0.29,5.65l0,0c-0.771,0.689-1.73,1.03-2.681,1.03l0,0C108.68,118.03,107.59,117.59,106.8,116.71z
	 M20.67,107.45L20.67,107.45L20.67,107.45c-1.3-1.78-0.91-4.28,0.87-5.591l0,0c1.79-1.3,4.29-0.909,5.59,0.87l0,0
	c1.31,1.79,0.91,4.29-0.87,5.59l0,0c-0.71,0.521-1.54,0.771-2.35,0.771l0,0C22.67,109.09,21.45,108.52,20.67,107.45z M115.54,108.24
	c-1.78-1.301-2.181-3.801-0.88-5.591l0,0c1.3-1.779,3.8-2.18,5.59-0.88l0,0c1.78,1.3,2.18,3.8,0.88,5.59l0,0
	c-0.78,1.08-2,1.65-3.24,1.65l0,0C117.069,109.01,116.25,108.76,115.54,108.24z M14.16,96.229c0,0,0,0-0.01,0l0,0
	c-0.9-2.02,0-4.38,2.02-5.29l0,0c2.02-0.899,4.38,0,5.29,2.021l0,0c0.9,2.02,0,4.38-2.02,5.29l0,0c-0.53,0.229-1.08,0.35-1.63,0.35
	l0,0C16.28,98.6,14.82,97.72,14.16,96.229z M122.34,98.149c-2.01-0.899-2.92-3.27-2.021-5.29l0,0c0.9-2.01,3.261-2.92,5.28-2.02l0,0
	c2.021,0.9,2.92,3.26,2.03,5.28l0,0c0,0,0,0-0.01,0l0,0c-0.66,1.489-2.12,2.37-3.65,2.37l0,0
	C123.43,98.49,122.87,98.38,122.34,98.149z M10.12,83.89c0,0,0,0,0.01,0l0,0c-0.47-2.16,0.91-4.29,3.07-4.75l0,0
	c2.16-0.46,4.29,0.92,4.75,3.08l0,0c0.46,2.16-0.92,4.28-3.08,4.74l0,0c-0.28,0.06-0.56,0.09-0.84,0.09l0,0
	C12.19,87.05,10.53,85.77,10.12,83.89z M126.89,86.85c-2.16-0.45-3.54-2.58-3.08-4.74l0,0c0.45-2.159,2.58-3.54,4.74-3.079l0,0
	c2.16,0.449,3.54,2.579,3.08,4.739l0,0l0,0l0,0c-0.39,1.88-2.061,3.17-3.91,3.17l0,0C127.45,86.939,127.17,86.91,126.89,86.85z
	 M8.76,70.99c-0.01-2.21,1.78-4.01,3.99-4.01l0,0c2.21,0,4,1.78,4.01,3.99l0,0c0,2.21-1.79,4.01-4,4.01l0,0
	C10.55,74.979,8.76,73.2,8.76,70.99z M124.979,70.86L124.979,70.86c0-0.02,0-0.04,0-0.07l0,0c0-0.04,0-0.09,0-0.13l0,0
	c-0.01-2.21,1.771-4.01,3.98-4.02l0,0c2.21-0.01,4.01,1.77,4.02,3.98l0,0c0,0.05,0,0.09,0,0.13l0,0c0,0.04,0,0.08,0,0.11l0,0l0,0
	l0,0c0,2.209-1.79,4.01-4,4.01l0,0C126.77,74.87,124.979,73.069,124.979,70.86z M13.17,62.82c-2.16-0.46-3.55-2.58-3.1-4.74l0,0l0,0
	l0,0c0.46-2.16,2.58-3.55,4.74-3.09l0,0c2.16,0.45,3.55,2.57,3.1,4.73H17.9c-0.39,1.89-2.05,3.18-3.9,3.18l0,0
	C13.72,62.9,13.45,62.87,13.17,62.82z M123.76,59.41c-0.46-2.16,0.91-4.29,3.07-4.75l0,0c2.16-0.47,4.29,0.91,4.75,3.07l0,0
	c0.47,2.16-0.91,4.28-3.061,4.75l0,0c-0.29,0.06-0.569,0.09-0.85,0.09l0,0C125.819,62.57,124.17,61.29,123.76,59.41z M16.09,51
	c-2.02-0.9-2.93-3.26-2.03-5.28l0,0c0.89-2.02,3.26-2.93,5.27-2.03l0,0c2.02,0.89,2.94,3.25,2.04,5.27l0,0
	c-0.66,1.5-2.12,2.38-3.66,2.38l0,0C17.17,51.34,16.62,51.23,16.09,51z M120.229,48.68L120.229,48.68
	c-0.91-2.02-0.01-4.39,2.011-5.29l0,0c2.01-0.91,4.38-0.01,5.29,2l0,0c0.899,2.02,0.01,4.39-2.011,5.29l0,0
	c-0.529,0.24-1.09,0.36-1.64,0.36l0,0C122.359,51.04,120.899,50.16,120.229,48.68z M21.42,40.06c-1.79-1.3-2.18-3.8-0.89-5.59l0,0
	c1.3-1.79,3.8-2.19,5.59-0.89l0,0c1.79,1.29,2.19,3.8,0.89,5.58l0,0c-0.78,1.08-2,1.66-3.24,1.66l0,0
	C22.95,40.82,22.13,40.57,21.42,40.06z M114.54,38.91c-1.311-1.78-0.92-4.28,0.859-5.59l0,0c1.78-1.3,4.28-0.92,5.591,0.86l0,0
	c1.31,1.78,0.92,4.29-0.86,5.59l0,0c-0.71,0.53-1.54,0.78-2.36,0.78l0,0C116.54,40.55,115.319,39.98,114.54,38.91z M28.91,30.46
	c-1.48-1.64-1.35-4.17,0.28-5.65l0,0c1.64-1.48,4.17-1.36,5.65,0.28l0,0c1.49,1.64,1.36,4.17-0.28,5.65l0,0
	c-0.76,0.69-1.72,1.04-2.68,1.04l0,0C30.79,31.78,29.7,31.33,28.91,30.46z M106.939,30.53c-1.649-1.47-1.79-4-0.31-5.64l0,0
	c1.47-1.65,4-1.79,5.64-0.32l0,0l0,0l0,0c1.65,1.48,1.79,4,0.32,5.65l0,0c-0.79,0.88-1.89,1.33-2.99,1.33l0,0
	C108.649,31.55,107.7,31.22,106.939,30.53z M38.22,22.62c-1.11-1.91-0.46-4.36,1.45-5.47l0,0c1.91-1.11,4.35-0.46,5.47,1.45l0,0
	c1.11,1.9,0.46,4.35-1.45,5.47l0,0c-0.63,0.36-1.32,0.54-2.01,0.54l0,0C40.3,24.61,38.96,23.9,38.22,22.62z M97.77,23.91
	c-1.91-1.1-2.58-3.55-1.47-5.46l0,0c1.1-1.92,3.54-2.58,5.46-1.48l0,0c1.91,1.1,2.57,3.55,1.47,5.46l0,0
	c-0.739,1.29-2.08,2.01-3.47,2.01l0,0C99.08,24.44,98.399,24.27,97.77,23.91z M48.96,16.88c-0.69-2.1,0.45-4.36,2.55-5.05l0,0
	c2.1-0.68,4.36,0.46,5.05,2.56l0,0c0.68,2.1-0.46,4.36-2.56,5.05v-0.01c-0.41,0.14-0.83,0.2-1.25,0.2l0,0
	C51.07,19.63,49.51,18.56,48.96,16.88z M87.43,19.34c-2.1-0.68-3.26-2.93-2.58-5.03l0,0c0.67-2.11,2.931-3.26,5.03-2.59l0,0l0,0l0,0
	c2.1,0.68,3.26,2.93,2.59,5.03l0,0c-0.55,1.7-2.12,2.78-3.81,2.78l0,0C88.25,19.53,87.84,19.47,87.43,19.34z M60.65,13.51
	c-0.23-2.2,1.36-4.17,3.55-4.4l0,0l0,0l0,0c2.2-0.23,4.17,1.36,4.4,3.55l0,0c0.24,2.2-1.35,4.17-3.55,4.4l0,0
	c-0.14,0.02-0.29,0.03-0.43,0.03l0,0C62.6,17.09,60.87,15.56,60.65,13.51z M76.37,17.03c-2.2-0.22-3.811-2.18-3.58-4.38l0,0
	c0.22-2.2,2.18-3.8,4.38-3.58l0,0l0,0l0,0c2.2,0.22,3.8,2.18,3.58,4.38l0,0c-0.21,2.07-1.95,3.6-3.98,3.6l0,0
	C76.64,17.05,76.5,17.05,76.37,17.03z"/>
<g>
</g>
<g>
</g>
<g>
</g>
<g>
</g>
<g>
</g>
<g>
</g>
</svg>
